<svg xmlns="http://www.w3.org/2000/svg" viewBox="0 0 46.93 46.93"><defs><style>.cls-1{fill:#221f1f;}.cls-2{fill:none;stroke:#fff;stroke-miterlimit:10;stroke-width:0.1px;opacity:0;}</style></defs><title>keysAsset 3</title><g id="Layer_2" data-name="Layer 2"><g id="Layer_1-2" data-name="Layer 1"><rect class="cls-1" x="30.38" y="18.22" width="10.5" height="10.5" rx="1.67" ry="1.67"/><path class="cls-1" d="M27.05,30.38H22L38.1,7.6a1.13,1.13,0,0,0-.25-1.55l-1.3-1A1.12,1.12,0,0,0,35,5.35L10,40.66a1.12,1.12,0,0,0,.25,1.55l1.29.95a1.11,1.11,0,0,0,1.58-.25l5.06-7.16v3.47a1.66,1.66,0,0,0,1.66,1.66h7.17a1.66,1.66,0,0,0,1.67-1.66V32.05A1.67,1.67,0,0,0,27.05,30.38Z"/><path class="cls-1" d="M16.55,24.24V19.89a1.67,1.67,0,0,0-1.67-1.67H7.72a1.67,1.67,0,0,0-1.67,1.67v7.16a1.67,1.67,0,0,0,1.67,1.67h5.67Z"/><path class="cls-1" d="M19.88,16.55H22l6.64-9.4a1.67,1.67,0,0,0-1.57-1.1H19.88a1.66,1.66,0,0,0-1.66,1.67v7.17A1.66,1.66,0,0,0,19.88,16.55Z"/><rect class="cls-2" x="0.05" y="0.05" width="46.83" height="46.83"/></g></g></svg>