<svg xmlns="http://www.w3.org/2000/svg" viewBox="0 0 46.93 46.93"><defs><style>.cls-1{fill:none;stroke:#fff;stroke-miterlimit:10;stroke-width:0.1px;opacity:0;}.cls-2{fill:#010101;}</style></defs><title>resetAsset 4</title><g id="Layer_2" data-name="Layer 2"><g id="Layer_1-2" data-name="Layer 1"><rect class="cls-1" x="0.05" y="0.05" width="46.83" height="46.83"/><path class="cls-2" d="M39,9h-9l-.71-1.21a1.8,1.8,0,0,0-1.6-.86H19.19a1.8,1.8,0,0,0-1.6.86L16.89,9h-9a1.12,1.12,0,0,0-1.19,1v2.07a1.12,1.12,0,0,0,1.19,1H39a1.13,1.13,0,0,0,1.2-1V10A1.13,1.13,0,0,0,39,9ZM10.69,37.13A3.42,3.42,0,0,0,14.28,40H32.66a3.42,3.42,0,0,0,3.58-2.91l1.58-22H9.11Z"/></g></g></svg>